<?xml version="1.0" encoding="iso-8859-1"?>
<!-- Generator: Adobe Illustrator 19.0.0, SVG Export Plug-In . SVG Version: 6.00 Build 0)  -->
<svg version="1.1" id="Capa_1" xmlns="http://www.w3.org/2000/svg" xmlns:xlink="http://www.w3.org/1999/xlink" x="0px" y="0px"
	 viewBox="0 0 512 512" style="enable-background:new 0 0 512 512;" xml:space="preserve">
<g>
	<path style="fill:#7B1FA2;" d="M490.667,0H53.333c-4.443,0-8.42,2.754-9.984,6.912l-32,85.333c-0.451,1.2-0.683,2.472-0.683,3.755
		v341.333c0,5.891,4.776,10.667,10.667,10.667h117.333v53.333c0,5.891,4.776,10.667,10.667,10.667H192
		c2.831,0.005,5.548-1.115,7.552-3.115L260.416,448h102.251c2.831,0.005,5.548-1.115,7.552-3.115l128-128
		c1.999-2.004,3.12-4.721,3.115-7.552V10.667C501.333,4.776,496.558,0,490.667,0z M458.667,288c0.005,2.831-1.115,5.548-3.115,7.552
		l-85.333,85.333c-2.004,1.999-4.721,3.12-7.552,3.115H260.416l-60.864,60.885c-4.16,4.171-10.914,4.179-15.085,0.019
		c-2.011-2.006-3.139-4.731-3.134-7.571V384H74.667C68.776,384,64,379.224,64,373.333v-320c0-5.891,4.776-10.667,10.667-10.667H448
		c5.891,0,10.667,4.776,10.667,10.667V288z"/>
	<path style="fill:#7B1FA2;" d="M213.333,277.333c-5.891,0-10.667-4.776-10.667-10.667v-128c0-5.891,4.776-10.667,10.667-10.667
		c5.891,0,10.667,4.776,10.667,10.667v128C224,272.558,219.224,277.333,213.333,277.333z"/>
	<path style="fill:#7B1FA2;" d="M341.333,277.333c-5.891,0-10.667-4.776-10.667-10.667v-128c0-5.891,4.776-10.667,10.667-10.667
		S352,132.776,352,138.667v128C352,272.558,347.224,277.333,341.333,277.333z"/>
</g>
<g>
</g>
<g>
</g>
<g>
</g>
<g>
</g>
<g>
</g>
<g>
</g>
<g>
</g>
<g>
</g>
<g>
</g>
<g>
</g>
<g>
</g>
<g>
</g>
<g>
</g>
<g>
</g>
<g>
</g>
</svg>
